<svg
  width="24"
  height="24"
  viewBox="0 0 24 24"
  xmlns="http://www.w3.org/2000/svg"
>
  <path
    fill="var(--text-placeholder-color)"
    d="M2 5.5C2 5.10218 2.23731 4.74281 2.60189 4.58579L8.60189 2.08579C8.85449 1.97874 9.14551 1.97874 9.39811 2.08579L15 4.414L20.6019 2.08579C21.2587 1.80864 22 2.29148 22 3V18.5C22 18.8978 21.7627 19.2572 21.3981 19.4142L15.3981 21.9142C15.1455 22.0213 14.8545 22.0213 14.6019 21.9142L9 19.586L3.39811 21.9142C2.74134 22.1914 2 21.7085 2 21V5.5ZM4 6.618V18.382L8 16.715V4.951L4 6.618ZM10 4.951V16.715L14 18.382V6.618L10 4.951ZM20 17.382V5.618L16 7.285V19.049L20 17.382Z"
  />
</svg>