<svg width="24" height="24" viewBox="0 0 24 24" fill="none" xmlns="http://www.w3.org/2000/svg">
<path d="M12 4C7.582 4 4 7.582 4 12C4 16.418 7.582 20 12 20C16.418 20 20 16.418 20 12C20 7.582 16.418 4 12 4Z" stroke="var(--text-color)" stroke-width="1.5"/>
<path d="M12 7V8M16.243 8.757L15.536 9.464M17 12H16M7 12H8M8.757 8.757L9.464 9.464" stroke="var(--text-color)" stroke-width="1.5" stroke-linecap="round"/>
<path d="M12 12L15.5 10.5" stroke="var(--text-color)" stroke-width="1.5" stroke-linecap="round"/>
<path d="M12 13C12.5523 13 13 12.5523 13 12C13 11.4477 12.5523 11 12 11C11.4477 11 11 11.4477 11 12C11 12.5523 11.4477 13 12 13Z" stroke="var(--text-color)" stroke-width="1.5"/>
<path d="M7 17H17M9 19H15" stroke="var(--text-color)" stroke-width="1.5" stroke-linecap="round"/>
</svg>
